<?xml version="1.0" encoding="UTF-8"?>
<svg width="18px" height="18px" viewBox="0 0 18 18" version="1.1" xmlns="http://www.w3.org/2000/svg" xmlns:xlink="http://www.w3.org/1999/xlink">
    <title>BDBCA630-D412-4444-B90C-13B4D4EF9C9E</title>
    <g id="D01" stroke="none" stroke-width="1" fill="none" fill-rule="evenodd">
        <g id="data-carrier-decision-tool-02-desktop" transform="translate(-355.000000, -1067.000000)" fill="#00AC4A">
            <g id="Group-6" transform="translate(165.000000, 1064.000000)">
                <g id="text-with-graphic-/-lg-/-icon-/-title" transform="translate(190.000000, 0.000000)">
                    <g id="Icon" transform="translate(0.000000, 3.000000)">
                        <path d="M18,9 C18,13.95 13.95,18 9,18 C4.05,18 0,13.95 0,9 C0,4.05 4.05,0 9,0 C13.95,0 18,4.05 18,9 Z M13.5,5.625 C13.1625,5.2875 12.6,5.2875 12.2625,5.625 C12.2625,5.625 12.2625,5.625 12.2625,5.625 L8.4375,10.575 L6.075,8.2125 C5.7375,7.875 5.175,7.9875 4.8375,8.325 C4.5,8.6625 4.5,9.1125 4.8375,9.45 L7.875,12.375 C8.2125,12.7125 8.775,12.7125 9.1125,12.375 C9.1125,12.375 9.1125,12.375 9.1125,12.375 L13.6125,6.75 C13.8375,6.4125 13.8375,5.9625 13.5,5.625 L13.5,5.625 Z" id="icon-fill"></path>
                    </g>
                </g>
            </g>
        </g>
    </g>
</svg>